<?xml version="1.0" standalone="no"?>
<!DOCTYPE svg PUBLIC " -//W3C//DTD SVG 1.1//EN"
"http://www.w3.org/Graphics/SVG/1.1/DTD/svg11.dtd">
<svg width="694" height="620" version="1.1"
xmlns="http://www.w3.org/2000/svg">
<path d="
M257.000000 54.142122
C266.444751 56.174395 280.264817 60.945097 286.713206 64.399153
C289.345943 65.809369 294.144808 67.636767 297.377352 68.460038
C300.609895 69.283309 304.659895 70.991317 306.377352 72.255611
C311.190000 75.798409 318.000000 80.081472 318.000000 79.565526
C318.000000 78.013904 301.829226 68.589606 297.085442 67.376560
C294.013449 66.591012 289.025000 64.652846 286.000000 63.069525
C282.975000 61.486203 278.250000 59.514333 275.500000 58.687592
C272.750000 57.860850 268.925000 56.526004 267.000000 55.721268
C265.075000 54.916533 261.025000 54.014150 258.000000 53.715973
L252.500000 53.173835
L257.000000 54.142122
"
style="fill:white;stroke:red;stroke-width:2"/>
<path d="
M324.000000 158.000000
C323.175000 158.533156 321.656271 158.976265 320.625046 158.984687
C318.835254 158.999304 308.157410 163.178282 305.000000 165.099846
C304.175000 165.601932 302.825000 166.289090 302.000000 166.626863
C299.128725 167.802427 291.466848 171.231161 286.400328 173.607805
C283.595509 174.923512 280.898963 176.000000 280.408003 176.000000
C279.917043 176.000000 275.461896 177.945636 270.507675 180.323635
C265.553454 182.701634 257.675000 186.400876 253.000000 188.544173
C248.325000 190.687469 243.825000 192.972020 243.000000 193.620952
C239.439397 196.421667 224.317252 201.564955 215.354259 203.023720
C212.341292 203.514093 208.484869 204.609363 206.784431 205.457654
C204.608866 206.542968 200.686131 207.000000 193.546362 207.000000
C183.711262 207.000000 180.952517 207.760443 181.030409 210.450000
C181.047133 211.027500 181.519494 210.712500 182.080099 209.750000
C182.946411 208.262633 184.644662 208.000000 193.396052 208.000000
C200.671264 208.000000 204.599956 207.547413 206.784431 206.457654
C208.484869 205.609363 212.341292 204.514093 215.354259 204.023720
C224.317252 202.564955 239.439397 197.421667 243.000000 194.620952
C243.825000 193.972020 248.325000 191.687469 253.000000 189.544173
C257.675000 187.400876 265.553454 183.701634 270.507675 181.323635
C275.461896 178.945636 279.917043 177.000000 280.408003 177.000000
C280.898963 177.000000 283.595509 175.923512 286.400328 174.607805
C289.205148 173.292097 293.750000 171.235256 296.500000 170.037045
C299.250000 168.838835 302.175000 167.437459 303.000000 166.922876
C303.825000 166.408293 305.175000 165.723781 306.000000 165.401739
C306.825000 165.079697 310.031271 163.732561 313.125046 162.408104
C316.218821 161.083647 319.510904 160.000000 320.440787 160.000000
C321.370670 160.000000 323.023560 159.522575 324.113875 158.939056
C326.405043 157.712860 336.038566 159.394001 339.750000 161.667707
C342.636881 163.436273 342.585905 165.505428 339.505790 171.580522
C336.268484 177.965653 335.355337 188.050525 334.306674 229.000000
C333.492449 260.794873 333.514915 272.851192 334.540540 354.500000
C334.888910 382.233290 334.681048 407.365946 333.998817 420.000000
C331.591119 464.587502 331.081258 480.579987 331.958414 484.000000
C332.452133 485.925000 333.000966 501.280517 333.178042 518.123370
L333.500000 548.746740
L330.056809 555.873370
C326.870227 562.468876 326.379173 563.000000 323.467838 563.000000
C319.091232 563.000000 315.391305 560.029564 296.064999 541.000000
C286.848485 531.925000 274.175968 519.542689 267.903851 513.483754
C261.631733 507.424819 253.201869 498.874819 249.170820 494.483754
L241.841640 486.500000
L248.670820 494.499613
C252.426869 498.899401 260.856651 507.674401 267.403669 513.999613
C273.950686 520.324826 286.838512 532.925000 296.043280 542.000000
C315.483885 561.166531 319.039267 564.000000 323.648457 564.000000
C326.765130 564.000000 327.212083 563.542894 330.737428 556.750000
L334.500000 549.500000
L334.183757 518.500000
C334.009824 501.450000 333.460991 485.925000 332.964129 484.000000
C332.080213 480.575433 332.584754 464.705377 334.998817 420.000000
C335.681048 407.365946 335.888910 382.233290 335.540540 354.500000
C334.514915 272.851192 334.492449 260.794873 335.306674 229.000000
C336.355337 188.050525 337.268484 177.965653 340.505790 171.580522
C341.877606 168.874809 343.000000 165.907053 343.000000 164.985510
C343.000000 162.263913 339.584629 159.958018 333.346333 158.467815
C326.309972 156.786969 325.908153 156.766857 324.000000 158.000000
"
style="fill:white;stroke:red;stroke-width:2"/>
<path d="
M483.000000 207.712786
C469.528835 221.352720 458.830940 231.909993 453.500000 236.825012
C450.200000 239.867546 439.850000 250.066093 430.500000 259.488450
C421.150000 268.910806 409.562500 280.261004 404.750000 284.711111
C399.937500 289.161218 396.000000 293.296717 396.000000 293.901107
C396.000000 294.505498 394.398613 295.000000 392.441362 295.000000
C388.935483 295.000000 386.398074 293.455629 377.138909 285.686302
C375.290309 284.135150 372.727273 282.466608 371.443273 281.978432
C370.159273 281.490256 366.809253 279.474577 363.998784 277.499145
C359.244978 274.157774 358.457120 273.932094 352.694420 274.261046
L346.500000 274.614641
L352.760256 274.807320
C358.149209 274.973183 359.722550 275.493451 364.064619 278.545420
C366.838879 280.495401 370.159273 282.490256 371.443273 282.978432
C372.727273 283.466608 375.290309 285.135150 377.138909 286.686302
C386.128797 294.229680 388.982726 296.000845 392.191362 296.027941
C395.125646 296.052721 397.593174 298.120163 414.000000 314.300524
C431.366170 331.426987 445.838228 347.132328 449.775462 353.124707
C454.198811 359.856941 455.676011 361.868549 459.964617 367.000000
C462.492758 370.025000 467.008917 375.650000 470.000526 379.500000
C479.801218 392.112833 489.780029 402.217709 495.758737 405.583621
C501.667811 408.910329 513.726371 419.252883 531.402672 436.155204
C541.890357 446.183674 545.863439 448.544495 554.735864 450.019881
C557.615589 450.498747 563.725344 452.649550 568.313096 454.799443
C572.900848 456.949336 579.769709 459.290139 583.577232 460.001226
C587.384754 460.712313 592.244077 461.902937 594.375727 462.647056
C596.507376 463.391175 599.172069 464.000000 600.297266 464.000000
C602.196144 464.000000 611.508213 467.269030 618.500000 470.390125
C631.503623 476.194870 641.601412 480.000000 644.002015 480.000000
C646.191627 480.000000 647.212532 479.280335 648.400202 476.899595
C649.711018 474.272001 649.722188 473.985674 648.473444 475.022040
C647.663050 475.694607 647.000000 476.864789 647.000000 477.622445
C647.000000 480.822967 638.815475 478.458839 618.500000 469.390125
C611.508213 466.269030 602.196144 463.000000 600.297266 463.000000
C599.172069 463.000000 596.507376 462.391175 594.375727 461.647056
C592.244077 460.902937 587.384754 459.712313 583.577232 459.001226
C579.769709 458.290139 572.900848 455.949336 568.313096 453.799443
C563.725344 451.649550 557.615589 449.498747 554.735864 449.019881
C545.863439 447.544495 541.890357 445.183674 531.402672 435.155204
C513.824119 418.346351 501.678639 407.916410 495.887767 404.656752
C490.033927 401.361650 480.441583 391.667343 470.995606 379.500000
C468.006704 375.650000 463.492758 370.025000 460.964617 367.000000
C456.676011 361.868549 455.198811 359.856941 450.775462 353.124707
C446.846816 347.145398 432.364807 331.414918 414.773204 314.018750
C397.487968 296.925545 396.140845 295.338842 397.273204 293.406455
C397.947942 292.255005 402.325000 287.818417 407.000000 283.547371
C411.675000 279.276324 422.700000 268.479642 431.500000 259.554743
C440.300000 250.629844 450.425000 240.650794 454.000000 237.379077
C457.575000 234.107360 463.734316 228.071137 467.687368 223.965250
C471.640421 219.859362 478.165421 213.468157 482.187368 209.762571
C486.209316 206.056985 489.050000 203.054677 488.500000 203.090776
C487.950000 203.126874 485.475000 205.206779 483.000000 207.712786
"
style="fill:white;stroke:red;stroke-width:2"/>
<path d="
M224.500000 281.461369
C221.200000 282.852522 218.185059 283.992823 217.800132 283.995369
C217.415205 283.997916 215.165205 285.258650 212.800132 286.797001
C208.965709 289.291083 205.926365 290.623557 193.000000 295.477541
C187.643649 297.488907 178.304033 299.742946 170.000000 301.028401
C165.875000 301.666947 160.043906 302.648114 157.042013 303.208772
C153.951301 303.786019 147.445401 303.940525 142.042013 303.565001
C134.546240 303.044060 131.642219 303.237274 128.500000 304.465993
C126.106049 305.402112 125.704537 305.722951 127.500000 305.265067
C129.150000 304.844280 135.390211 304.633461 141.367136 304.796580
C147.344061 304.959700 154.544061 304.664813 157.367136 304.141277
C160.190211 303.617741 165.875000 302.666947 170.000000 302.028401
C178.304033 300.742946 187.643649 298.488907 193.000000 296.477541
C205.926365 291.623557 208.965709 290.291083 212.800132 287.797001
C215.165205 286.258650 217.379897 285.000000 217.721671 285.000000
C218.063446 285.000000 221.272865 283.827901 224.853714 282.395336
C230.189833 280.260552 232.275197 279.911500 236.413402 280.460452
C239.190381 280.828831 241.801511 281.663430 242.215914 282.315116
C243.620947 284.524657 243.008854 290.178824 241.069837 292.901923
C240.008247 294.392788 234.567150 304.587255 228.978509 315.556293
C223.389868 326.525332 216.876537 339.100000 214.504439 343.500000
C212.132342 347.900000 209.348367 353.075000 208.317829 355.000000
C207.287291 356.925000 205.277543 360.300000 203.851723 362.500000
C202.425903 364.700000 199.154459 370.325000 196.581848 375.000000
C194.009236 379.675000 190.592707 385.525000 188.989560 388.000000
C187.386414 390.475000 185.373993 393.850000 184.517515 395.500000
C181.580799 401.157567 172.140992 416.505759 164.322399 428.335260
C160.020080 434.844654 156.050000 440.900928 155.500000 441.793648
C154.950000 442.686368 152.313546 446.338768 149.641214 449.910093
C146.968881 453.481417 144.533629 457.100143 144.229542 457.951705
C143.181723 460.886007 131.608170 478.513631 126.634913 484.750000
C120.327734 492.659082 117.952619 493.004813 114.876917 486.461539
C113.703587 483.965385 112.562159 482.104507 112.340413 482.326254
C112.118666 482.548001 112.967744 484.702808 114.227253 487.114715
C117.845255 494.043036 120.418608 493.682214 127.159535 485.301415
C132.472914 478.695445 144.113599 461.076782 145.229542 457.951705
C145.533629 457.100143 147.968881 453.481417 150.641214 449.910093
C153.313546 446.338768 155.950000 442.686368 156.500000 441.793648
C157.050000 440.900928 161.020080 434.844654 165.322399 428.335260
C173.140992 416.505759 182.580799 401.157567 185.517515 395.500000
C186.373993 393.850000 188.386414 390.475000 189.989560 388.000000
C191.592707 385.525000 195.009236 379.675000 197.581848 375.000000
C200.154459 370.325000 203.425903 364.700000 204.851723 362.500000
C206.277543 360.300000 208.287291 356.925000 209.317829 355.000000
C210.348367 353.075000 213.132342 347.900000 215.504439 343.500000
C217.876537 339.100000 224.389868 326.525332 229.978509 315.556293
C235.567150 304.587255 241.008247 294.392788 242.069837 292.901923
C244.264242 289.820165 244.606456 284.191392 242.750000 281.714509
C241.965750 280.668163 239.450700 279.839080 236.000000 279.489379
C231.529313 279.036312 229.377113 279.405365 224.500000 281.461369
"
style="fill:white;stroke:red;stroke-width:2"/>
</svg>
